<?xml version="1.0" encoding="utf-8"?>
<!-- Generator: Adobe Illustrator 24.2.0, SVG Export Plug-In . SVG Version: 6.00 Build 0)  -->
<svg version="1.1" id="레이어_1" xmlns="http://www.w3.org/2000/svg" xmlns:xlink="http://www.w3.org/1999/xlink" x="0px"
	 y="0px" viewBox="0 0 318 129.7" style="enable-background:new 0 0 318 129.7;" xml:space="preserve">
<rect style="fill:#040000;" width="318" height="129.7"/>
<g>
	<path style="fill:#FFFFFF;" d="M22.2,14.5h15.9v86.9h26.2v14.5H22.2V14.5z"/>
	<path style="fill:#FFFFFF;" d="M70.5,14.5h15.9v101.3H70.5V14.5z"/>
	<path style="fill:#FFFFFF;" d="M94.1,91.8V86h15.1V93c0,7.2,3.2,9.8,8.3,9.8c5.1,0,8.3-2.6,8.3-10.1c0-8.4-3.2-13.8-13.6-22.9
		c-13.3-11.7-17.7-20-17.7-31.6c0-15.9,8.3-25.2,23.7-25.2c15.5,0,23.2,9.3,23.2,25.5v4.2h-15.1v-5.2c0-7.2-2.9-10-8-10
		c-5.1,0-8,2.8-8,9.7c0,7.4,3.3,12.7,13.8,21.9c13.3,11.7,17.5,19.8,17.5,32.4c0,16.5-8.4,25.8-24,25.8S94.1,108,94.1,91.8z"/>
	<path style="fill:#FFFFFF;" d="M161.7,29h-16.6V14.5h49.2V29h-16.6v86.9h-15.9V29z"/>
	<path style="fill:#FFFFFF;" d="M200,91.8V14.5h15.9V93c0,7.2,3,9.8,8.1,9.8s8.1-2.6,8.1-9.8V14.5h15.3v77.3
		c0,16.2-8.1,25.5-23.7,25.5S200,108,200,91.8z"/>
	<path style="fill:#FFFFFF;" d="M257.3,14.5h23.5c15.9,0,23.7,8.8,23.7,25v10c0,16.2-7.8,25-23.7,25h-7.5v41.3h-15.9V14.5z
		 M280.8,60.1c5.1,0,7.8-2.3,7.8-9.6v-12c0-7.2-2.8-9.6-7.8-9.6h-7.5v31.1H280.8z"/>
</g>
</svg>
